<svg width="225" height="44" viewBox="0 0 225 44" fill="none" xmlns="http://www.w3.org/2000/svg">
<path d="M27.6721 1.24119L27.8861 1.38305C30.2315 2.93558 32.1199 3.21984 34.9936 3.21984C36.0065 3.21984 37.0932 3.02944 38.1348 2.66998L38.4075 2.57559L39.77 4.48491L39.6298 4.67211C34.568 11.398 38.5153 18.6593 41.309 21.558L41.5673 21.8263L41.304 22.0892C40.9376 22.455 40.3029 23.1148 39.8317 23.6092L39.6723 23.7772L39.6826 24.0081L39.685 24.0886C39.6875 24.1473 39.6894 24.2081 39.7015 24.3142L39.7059 24.3564C39.9424 28.8422 38.7798 32.5271 36.2507 35.3073C33.5629 38.262 29.3238 40.0406 24.3144 40.3158L24.1213 40.3265L23.9781 40.4572C22.7026 41.6182 21.4077 42.5825 21.394 42.5932L21.1682 42.7617L20.9424 42.5942C20.8888 42.5537 19.61 41.6028 18.3509 40.4572L18.2082 40.3265L18.0148 40.3158C13.0052 40.0406 8.76588 38.262 6.07815 35.3073C3.54838 32.526 2.38609 28.8412 2.62359 24.3553L2.62692 24.3126C2.63859 24.2134 2.64089 24.1585 2.64338 24.0961L2.6438 24.0796L2.64401 24.0774L2.6463 24.0081L2.6563 23.7772L2.49692 23.6092C2.05255 23.1425 1.40047 22.4636 1.02505 22.0892L0.761719 21.8263L1.02005 21.558C3.81422 18.6593 7.76066 11.398 2.69922 4.67211L2.55838 4.48491L3.92172 2.57559L4.19422 2.66998C5.23588 3.02944 6.32194 3.21984 7.33548 3.21984C10.209 3.21984 12.0971 2.93558 14.4427 1.38305L14.6571 1.24119L14.8677 1.38732C16.9371 2.82359 18.938 3.49185 21.1646 3.49185C23.3913 3.49185 25.3915 2.82359 27.4611 1.38732L27.6721 1.24119Z" fill="#D4AF18"/>
<path d="M5.75253 17.8477C7.3384 14.2109 7.92879 9.54045 5.26172 4.97565C5.92816 5.09405 6.62757 5.16766 7.33653 5.16766C10.0661 5.16766 12.2152 4.91912 14.629 3.55486C16.5322 4.70632 18.6642 5.43753 21.1609 5.43966C23.6667 5.43753 25.7984 4.70632 27.7017 3.55486C30.1159 4.91912 32.2651 5.16766 34.9947 5.16766C35.7034 5.16766 36.4028 5.09405 37.0759 4.96445C34.4025 9.54045 34.9924 14.2109 36.5784 17.8477H5.75253Z" fill="white"/>
<path d="M36.5794 17.8477C34.9934 14.2109 34.4036 9.54045 37.0769 4.96445C36.4038 5.09405 35.7045 5.16766 34.9957 5.16766C32.2661 5.16766 30.1169 4.91912 27.7027 3.55486C25.7994 4.70632 23.6678 5.43753 21.1619 5.43966C21.1378 5.43966 21.1142 5.43859 21.0898 5.43859V17.8477H36.5794Z" fill="#FBCF17"/>
<path d="M33.1836 35.4219C36.2211 33.2016 38.0153 29.656 37.7518 24.4837C37.7211 24.1899 37.699 24.1728 37.6757 23.8763H33.1836V35.4219Z" fill="#29408D"/>
<path d="M28.375 37.6484C30.1831 37.1599 31.8104 36.426 33.1831 35.4223V23.8772H28.375V37.6484Z" fill="#811944"/>
<path d="M9.14453 35.4223C10.5181 36.426 12.1447 37.1599 13.9535 37.6484V23.8772H9.14453V35.4223Z" fill="#811944"/>
<path d="M4.58022 24.4852C4.31668 29.6574 6.11065 33.203 9.14857 35.4238V23.8777H4.65564C4.6323 24.1742 4.61085 24.1913 4.58022 24.4852Z" fill="#29408D"/>
<path d="M21.1777 26.4299C22.0575 26.4299 22.8754 26.6848 23.5705 27.1184V23.8768H18.7617V27.1328C19.4617 26.6901 20.2885 26.4299 21.1777 26.4299Z" fill="#811944"/>
<path d="M21.1777 35.4911C20.2885 35.4911 19.4617 35.2314 18.7617 34.7882V38.3743C18.8469 38.3786 18.9308 38.3845 19.0161 38.3887C20.6133 38.3967 22.0615 38.4058 23.3161 38.3887C23.4015 38.3845 23.4855 38.3786 23.5705 38.3743V34.8031C22.8754 35.2367 22.0575 35.4911 21.1777 35.4911Z" fill="#811944"/>
<path d="M23.5703 23.8765V27.1176C24.8526 27.9176 25.7087 29.3373 25.7087 30.9602C25.7087 32.5826 24.8526 34.0018 23.5703 34.8018V38.373C25.2682 38.2872 26.8849 38.0504 28.3788 37.6477V23.8765H23.5703Z" fill="#29408D"/>
<path d="M16.6471 30.9602C16.6471 29.3469 17.4925 27.9352 18.7621 27.1314V23.8765H13.9531V37.6477C15.4469 38.0504 17.064 38.2872 18.7621 38.373V34.788C17.4925 33.9848 16.6471 32.573 16.6471 30.9602Z" fill="#29408D"/>
<path d="M6.83594 9.05246C7.15844 10.6263 7.16927 12.1714 6.96196 13.6402H11.6328V17.8477H16.2201V13.6402H21.1083V9.05246H16.2201V4.38633C15.672 4.1442 15.1417 3.86473 14.6293 3.55486C13.6043 4.13406 12.6268 4.51059 11.6328 4.75379V9.05246H6.83594Z" fill="#CF193B"/>
<path d="M30.9806 17.8477V4.81832C30.4279 4.69779 29.8814 4.53726 29.332 4.32552V17.8477H30.9806Z" fill="#CF193B"/>
<path d="M24.3868 17.8477V5.00499C23.856 5.15165 23.307 5.26365 22.7383 5.33672V17.8477H24.3868Z" fill="#CF193B"/>
<path d="M34.2772 17.8477V5.15966C33.7075 5.149 33.1599 5.12232 32.6289 5.07219V17.8477H34.2772Z" fill="#CF193B"/>
<path d="M27.6835 17.8477V3.56552C27.1531 3.88552 26.6041 4.17192 26.0352 4.41992V17.8477H27.6835Z" fill="#CF193B"/>
<path d="M39.2756 23.6366C39.3227 24.1028 39.2952 24.0846 39.3275 24.3572C39.8781 34.6996 32.6731 39.5828 23.9658 39.9438C22.635 41.187 21.1689 42.2798 21.1689 42.2798C21.1689 42.2798 19.6958 41.187 18.3648 39.9438C9.65727 39.5828 2.45208 34.6996 3.00292 24.3572C3.03521 24.0846 3.00791 24.1028 3.05521 23.6366C2.55604 23.1086 1.72979 22.2468 1.29354 21.811C4.41666 18.5705 8.06085 11.1561 3.0025 4.43396L4.07083 3.01743C5.08187 3.36676 6.20645 3.5881 7.33626 3.5881C10.2368 3.5881 12.2175 3.30063 14.6529 1.68783C16.5779 3.02436 18.6652 3.86116 21.1654 3.86116C23.6654 3.86116 25.7529 3.02436 27.6781 1.68783C30.1129 3.30063 32.0931 3.5881 34.9944 3.5881C36.1237 3.5881 37.2483 3.36676 38.2598 3.01743L39.3277 4.43396C34.2694 11.1561 37.9137 18.5705 41.0375 21.811C40.6008 22.2468 39.7745 23.1086 39.2756 23.6366ZM42.3306 21.8238L41.7018 21.1705C39.0185 18.387 35.2244 11.4228 40.065 4.98864L40.445 4.48356L38.6147 1.91877L37.9585 2.14544C36.9727 2.48623 35.9477 2.66544 34.9944 2.66544C32.2294 2.66544 30.4175 2.39557 28.1873 0.91877L27.6656 0.57317L27.1517 0.9305C25.1777 2.3001 23.276 2.93796 21.1654 2.93796C19.055 2.93796 17.1525 2.3001 15.1789 0.9305L14.6652 0.57317L14.1434 0.91877C11.9133 2.39557 10.1014 2.66544 7.33626 2.66544C6.38272 2.66544 5.3577 2.48623 4.37208 2.14544L3.71583 1.91877L1.885 4.48302L2.265 4.98864C7.10624 11.4228 3.31188 18.387 0.629168 21.1705L0 21.8238L0.641669 22.4638C0.986458 22.8078 1.59812 23.443 2.10375 23.9748C2.10229 24.0052 2.10167 24.0313 2.10062 24.0574C2.09875 24.1129 2.09729 24.1588 2.08687 24.2478L2.08167 24.3081C1.83437 28.9481 3.04416 32.7689 5.67648 35.6633C8.46709 38.731 12.8283 40.5657 17.9858 40.8489C19.2635 42.0126 20.5608 42.9774 20.6189 43.0206L21.1702 43.4297L21.7202 43.019C21.7779 42.9764 23.0683 42.0116 24.3448 40.8489C29.5023 40.5657 33.8635 38.731 36.6537 35.6633C39.2864 32.7689 40.4958 28.9486 40.2492 24.3081L40.2435 24.2478C40.2329 24.1582 40.2314 24.1124 40.23 24.0564C40.2289 24.0313 40.2279 24.0052 40.2269 23.9748C40.7327 23.443 41.3448 22.8078 41.6892 22.4638L42.3306 21.8238Z" fill="#040606"/>
<path d="M4.71552 24.4984C4.72906 24.3698 4.74052 24.2952 4.75135 24.2264C4.76114 24.1629 4.77052 24.1037 4.77968 24.0157H37.5482C37.5578 24.1048 37.5672 24.1629 37.5768 24.2269C37.5878 24.2952 37.5995 24.3698 37.6126 24.4914C37.8111 28.3917 36.842 31.5426 34.7317 33.8578C32.3026 36.5213 28.3528 38.0402 23.312 38.2488C22.1097 38.2653 20.7292 38.2584 19.2101 38.2504L19.0201 38.2488C13.9753 38.0402 10.0251 36.5213 7.59656 33.8578C5.48637 31.5437 4.51739 28.3917 4.71552 24.4984ZM4.51573 23.8658C4.50322 24.0237 4.49114 24.0994 4.47802 24.1842C4.46656 24.2562 4.45448 24.3346 4.43989 24.477C4.23697 28.4541 5.23052 31.6733 7.39218 34.0445C9.87176 36.764 13.8887 38.3128 19.0136 38.5256L19.2087 38.5261C20.0614 38.5314 20.8705 38.5352 21.6289 38.5352C22.2236 38.5352 22.7872 38.5325 23.3197 38.525C28.4397 38.3128 32.4563 36.764 34.9359 34.0445C37.0978 31.6728 38.0913 28.4541 37.8878 24.4701C37.8738 24.3346 37.8616 24.2562 37.8501 24.1842C37.837 24.0994 37.8249 24.0237 37.8126 23.8658L37.8024 23.7378H4.52552L4.51573 23.8658Z" fill="#040606"/>
<path d="M5.52676 5.16073C6.15076 5.2578 6.75844 5.30633 7.337 5.30633C10.1442 5.30633 12.2441 5.04499 14.6272 3.71593C16.6624 4.93246 18.7401 5.54312 20.9695 5.57725V17.7101H5.96281C7.28009 14.5922 8.20846 9.96446 5.52676 5.16073ZM21.2462 5.57886C23.5219 5.56232 25.6368 4.95273 27.7049 3.71593C30.0878 5.04499 32.1874 5.30633 34.9951 5.30633C35.5893 5.30633 36.1982 5.25512 36.8099 5.15379C34.1255 9.96499 35.052 14.5922 36.369 17.7101H21.2462V5.57886ZM5.62633 17.7927L5.5418 17.9863H36.7899L36.7055 17.7927C35.3485 14.6802 34.3307 9.93939 37.1961 5.03539L37.3492 4.77246L37.0505 4.83005C36.3589 4.96339 35.667 5.03005 34.9951 5.03005C32.2059 5.03005 30.1301 4.76873 27.7707 3.43539L27.6999 3.39539L27.6305 3.43753C25.5595 4.69086 23.4432 5.30099 21.1616 5.30206C18.886 5.30099 16.7728 4.69086 14.7012 3.43753L14.632 3.39539L14.5616 3.43539C12.202 4.76873 10.1257 5.03005 7.337 5.03005C6.68574 5.03005 5.99572 4.9666 5.28657 4.84073L4.99219 4.78847L5.14302 5.04659C8.00238 9.94099 6.98409 14.6802 5.62633 17.7927Z" fill="#040606"/>
<path d="M17.2222 19.6467V18.7337H14.1289V23.0195H15.0593V21.2521H16.3233V20.3459H15.0593V19.6467H17.2222Z" fill="#040606"/>
<path d="M20.8424 19.5907C21.1801 19.5907 21.418 19.7315 21.569 20.0216L21.5888 20.06L22.4499 19.6632L22.4297 19.6216C22.1276 18.9971 21.5826 18.6664 20.8543 18.6664C19.7303 18.6664 18.9453 19.5752 18.9453 20.8755C18.9453 22.2173 19.6828 23.084 20.824 23.084C21.5682 23.084 22.1049 22.7565 22.4174 22.1112L22.4359 22.0739L21.6536 21.6104L21.6303 21.6488C21.4078 22.0216 21.1959 22.1603 20.8485 22.1603C20.2807 22.1603 19.8993 21.6435 19.8993 20.8755C19.8993 20.0835 20.2609 19.5907 20.8424 19.5907Z" fill="#040606"/>
<path d="M26.661 22.131H25.5922V21.1379H26.661C27.038 21.1379 27.2145 21.2953 27.2145 21.6323C27.2145 21.9587 27.0226 22.131 26.661 22.131ZM25.5922 19.5977H26.6129C27.0289 19.5977 27.0822 19.7881 27.0822 19.9534C27.0822 20.1891 26.9424 20.3038 26.6547 20.3038H25.5922V19.5977ZM28.0247 19.8878C28.0247 19.1657 27.5101 18.7337 26.6489 18.7337H24.6797V23.0195H26.6304C27.5932 23.0195 28.1685 22.4963 28.1685 21.6195C28.1685 21.2126 27.9722 20.8803 27.6272 20.6969C27.881 20.5129 28.0247 20.2222 28.0247 19.8878Z" fill="#040606"/>
<path d="M18.4053 27.5586C18.3243 27.8786 18.2462 28.1581 18.1835 28.4429C17.9597 29.4685 17.9622 31.0119 18.7962 31.7719C18.5106 32.2839 17.9843 32.581 17.3403 32.581C17.2633 32.581 17.1883 32.5762 17.1143 32.5661C16.9106 32.0626 16.798 31.5122 16.798 30.9351C16.798 29.5725 17.4247 28.3559 18.4053 27.5586ZM23.6139 28.7378C22.8541 28.3138 21.8568 27.9255 21.1374 28.2247C20.5932 27.8866 20.4997 27.0354 21.1862 26.5853C23.4833 26.6039 25.3557 28.4045 25.4909 30.6722C25.0805 29.8871 24.3309 29.1389 23.6139 28.7378ZM23.2968 31.8151C23.2899 31.6546 23.2526 31.4861 23.1789 31.309C22.9474 30.757 22.1489 30.085 21.1481 30.7762C20.412 30.2226 20.457 29.3735 20.7818 28.8594C21.2874 28.0578 22.4372 28.3767 23.4876 28.9639C24.3397 29.4402 25.2324 30.4354 25.4805 31.3351C25.4382 31.8034 25.3216 32.2493 25.1426 32.6626C24.847 31.7415 23.8874 31.6071 23.2968 31.8151ZM18.3106 29.7346C18.2985 28.8823 18.5401 28.1351 18.7306 27.3186C19.3226 26.9213 20.0182 26.6663 20.7685 26.6018C20.2662 27.1495 20.3701 27.9517 20.8878 28.365C20.7664 28.4541 20.6566 28.5714 20.5628 28.7207C20.1795 29.3277 20.1249 30.3501 21.0155 30.9997C20.9614 31.5095 20.282 32.0109 19.8114 31.9501C18.8031 31.821 18.3266 30.885 18.3106 29.7346ZM19.0031 31.9319C19.2164 32.0717 19.4724 32.1682 19.7783 32.2071C20.3822 32.2845 21.2222 31.6845 21.2755 31.0034C22.1064 30.4146 22.7468 30.9485 22.9401 31.4098C23.3212 32.3213 22.5187 32.9794 21.4853 33.5965C20.6856 34.0727 19.2908 34.301 18.3835 34.2941C17.9035 33.8983 17.5097 33.4018 17.2352 32.8375C17.2699 32.8391 17.3047 32.8402 17.3403 32.8402C18.0566 32.8402 18.6641 32.5117 19.0031 31.9319ZM21.1485 35.2861C20.2495 35.2861 19.4143 35.0125 18.7205 34.5458C19.6393 34.5031 20.8608 34.2695 21.618 33.8173C22.3524 33.3799 23.1322 32.8338 23.2745 32.1042C23.8083 31.8375 24.8286 31.9634 24.9587 33.037C24.2174 34.3773 22.7891 35.2861 21.1485 35.2861ZM21.1485 35.5645C23.7005 35.5645 25.777 33.4877 25.777 30.9351C25.777 28.3837 23.7005 26.3063 21.1485 26.3063C18.5962 26.3063 16.5195 28.3837 16.5195 30.9351C16.5195 33.4877 18.5962 35.5645 21.1485 35.5645Z" fill="#040606"/>
<path d="M57.6533 15.061C57.6533 13.7165 56.3728 13.268 56.3728 13.268H53.1498V16.7906H55.8608C57.0346 16.7906 57.6533 16.1282 57.6533 15.061ZM53.1498 7.39811V10.7704H56.3088C56.3088 10.7704 57.44 10.3442 57.44 9.02051C57.44 8.12398 56.9493 7.39811 55.6896 7.39811H53.1498ZM60.4928 15.2109C60.4928 17.8146 59.0624 19.373 55.7754 19.373H50.332V4.85784H55.5829C59.0624 4.85784 60.2789 6.43705 60.2789 8.82852C60.2789 11.1123 58.593 12.0301 58.593 12.0301V12.0728C58.593 12.0728 60.4928 13.0552 60.4928 15.2109Z" fill="white"/>
<path d="M69.6079 13.8872L68.754 10.6637C68.4121 9.31918 67.9855 7.44078 67.9855 7.44078H67.4095C67.4095 7.44078 66.9823 9.31918 66.6196 10.6637L65.7871 13.9085C66.3844 14.0152 67.0249 14.0797 67.6655 14.0797C68.3268 14.0797 68.9673 14.0152 69.6079 13.8872ZM73.6425 17.7506V19.373H71.0377L70.2484 16.3208C69.3945 16.4914 68.5407 16.5768 67.6655 16.5768C66.8116 16.5768 65.9577 16.4914 65.1465 16.3421L64.3567 19.373H61.8164V17.7506L65.3812 4.85784H70.0777L73.6425 17.7506Z" fill="white"/>
<path d="M81.6225 11.1976C81.6225 11.1976 82.967 10.8562 82.967 9.29784C82.967 8.14531 82.263 7.48344 81.0886 7.48344H78.3996V11.1976H81.6225ZM82.8817 13.524C82.8817 13.524 84.3121 16.0856 85.8065 17.6226V19.373H83.5862C81.7718 17.388 79.9148 13.8232 79.9148 13.8232H78.3996V19.373H75.4961V4.85784H80.982C84.1414 4.85784 85.8705 6.35224 85.8705 9.16931C85.8705 12.4786 82.8817 13.524 82.8817 13.524Z" fill="white"/>
<path d="M90.3722 10.2173V14.0168C90.3722 16.0019 90.9695 16.9416 92.8698 16.9416C94.6629 16.9416 94.8335 15.6392 94.8335 15.6392H97.2026V17.9021C97.2026 17.9021 96.1781 19.1186 93.937 19.4386C93.9157 21.445 92.7631 22.6621 92.7631 22.6621H90.8629V21.2322C90.8629 21.2322 91.6101 20.6557 91.6314 19.4386C88.9205 19.0546 87.4688 17.3256 87.4688 13.9528V10.2813C87.4688 6.43865 89.369 4.71012 92.8485 4.71012C95.8367 4.71012 97.2026 6.33252 97.2026 6.33252V8.59491H94.8335C94.8335 8.59491 94.6629 7.29305 92.8698 7.29305C90.9695 7.29305 90.3722 8.23224 90.3722 10.2173Z" fill="white"/>
<path d="M106.209 13.8872L105.356 10.6637C105.014 9.31918 104.587 7.44078 104.587 7.44078H104.011C104.011 7.44078 103.584 9.31918 103.221 10.6637L102.389 13.9085C102.986 14.0152 103.627 14.0797 104.267 14.0797C104.928 14.0797 105.569 14.0152 106.209 13.8872ZM110.244 17.7506V19.373H107.639L106.85 16.3208C105.996 16.4914 105.142 16.5768 104.267 16.5768C103.413 16.5768 102.559 16.4914 101.748 16.3421L100.958 19.373H98.418V17.7506L101.983 4.85784H106.679L110.244 17.7506Z" fill="white"/>
<path d="M122.165 18.463C124.723 18.463 126.096 17.0902 126.096 13.9286V10.2262C126.096 7.06409 124.723 5.69129 122.165 5.69129C119.606 5.69129 118.233 7.06409 118.233 10.2262V13.9286C118.233 17.0902 119.606 18.463 122.165 18.463ZM117.234 10.3094C117.234 6.64862 118.898 4.79689 122.165 4.79689C125.43 4.79689 127.094 6.64862 127.094 10.3094V13.8454C127.094 17.5062 125.43 19.3574 122.165 19.3574C118.898 19.3574 117.234 17.5062 117.234 13.8454V10.3094Z" fill="white"/>
<path d="M143.029 4.21547C143.508 4.21547 143.715 4.48587 143.715 4.88107V4.96426C143.715 5.33919 143.508 5.60906 143.029 5.60906C142.53 5.60906 142.322 5.33919 142.322 4.96426V4.88107C142.322 4.48587 142.53 4.21547 143.029 4.21547ZM131.152 8.6672V6.60746C131.152 4.09066 132.92 3.75787 132.92 3.75787H133.689V4.58986H133.606C132.879 4.58986 132.109 5.08907 132.109 6.69067V8.6672H136.976V6.60746C136.976 4.09066 138.744 3.75787 138.744 3.75787H139.514V4.58986H139.431C138.703 4.58986 137.933 5.08907 137.933 6.69067V8.6672H143.487V19.1504H142.53V9.54026H137.933V19.1504H136.976V9.54026H132.109V19.1504H131.152V9.54026H129.113V8.6672H131.152Z" fill="white"/>
<path d="M146.836 13.5963C146.836 9.87257 148.562 8.56218 151.121 8.56218C153.159 8.56218 154.137 9.41498 154.137 9.41498V10.1846H153.388C153.388 10.1846 152.702 9.45656 151.121 9.45656C149 9.45656 147.814 10.5803 147.814 13.6582V14.1787C147.814 17.2363 149 18.3803 151.121 18.3803C152.702 18.3803 153.388 17.6518 153.388 17.6518H154.137V18.4219C154.137 18.4219 153.159 19.2539 151.121 19.2539C148.562 19.2539 146.836 17.9643 146.836 14.2203V13.5963Z" fill="white"/>
<path d="M157.11 8.6672H158.067V19.1504H157.11V8.6672ZM157.61 4.21547C158.087 4.21547 158.296 4.48587 158.296 4.88107V4.96426C158.296 5.33919 158.087 5.60906 157.61 5.60906C157.11 5.60906 156.902 5.33919 156.902 4.96426V4.88107C156.902 4.48587 157.11 4.21547 157.61 4.21547Z" fill="white"/>
<path d="M167.887 17.1111V14.2407H164.85C162.811 14.2407 162.25 15.1351 162.25 16.3617C162.25 17.7143 162.936 18.4423 164.725 18.4423C166.722 18.4423 167.887 17.1111 167.887 17.1111ZM162.042 9.29027C162.042 9.31107 163.248 8.52014 165.329 8.52014C167.72 8.52014 168.844 9.64387 168.844 11.7649V19.1495H168.074L167.95 17.9639H167.908C167.908 17.9639 166.66 19.3164 164.496 19.3164C162.25 19.3164 161.293 18.1095 161.293 16.3831C161.293 14.5943 162.146 13.4289 164.891 13.4289H167.887V11.8065C167.887 10.2055 166.993 9.41455 165.266 9.41455C163.56 9.41455 162.791 10.0801 162.791 10.0801H162.042V9.29027Z" fill="white"/>
<path d="M173.877 19.1504C173.877 19.1504 172.754 18.9008 172.754 17.3824V3.75787H173.71V17.2992C173.71 17.9856 174.064 18.3179 174.543 18.3179H174.751V19.1504H173.877Z" fill="white"/>
<path d="M181.676 17.7351H182.425C182.425 17.7351 183.236 18.4215 185.565 18.4215C187.957 18.4215 189.081 17.2567 189.081 15.4679C189.081 13.6993 187.999 13.0545 186.377 12.5351L184.9 12.0561C182.57 11.2871 181.884 10.0593 181.884 8.41613C181.884 6.14893 183.527 4.83854 186.169 4.83854C188.54 4.83854 189.747 5.67054 189.747 5.67054V6.48175H188.997C188.997 6.48175 188.145 5.73294 186.169 5.73294C184.026 5.73294 182.882 6.75214 182.882 8.39534C182.882 9.83054 183.61 10.6007 185.233 11.1201L186.709 11.5991C189.081 12.3889 190.038 13.3873 190.08 15.4055C190.121 17.9223 188.311 19.3164 185.586 19.3164C182.965 19.3164 181.676 18.5255 181.676 18.5255V17.7351Z" fill="white"/>
<path d="M191.598 8.6672H193.637V5.984H194.593V8.6672H196.714V9.54026H194.593V16.6747C194.593 17.7776 195.113 18.3179 195.904 18.3179H196.237V19.1504H195.28C195.28 19.1504 193.637 18.9216 193.637 16.7376V9.54026H191.598V8.6672Z" fill="white"/>
<path d="M202.894 18.4423C204.787 18.4423 206.201 17.4231 206.201 14.1575V13.6577C206.201 10.3921 204.787 9.39374 202.894 9.39374C201.001 9.39374 199.587 10.3921 199.587 13.6577V14.1575C199.587 17.4231 201.001 18.4423 202.894 18.4423ZM198.609 13.5959C198.609 9.97667 200.399 8.49934 202.894 8.49934C205.391 8.49934 207.179 9.97667 207.179 13.5959V14.2199C207.179 17.8391 205.391 19.3164 202.894 19.3164C200.399 19.3164 198.609 17.8391 198.609 14.2199V13.5959Z" fill="white"/>
<path d="M211.193 8.6672L211.338 10.2064H211.38C211.38 10.2064 212.212 8.6672 214.313 8.6672H214.666V9.5616H214.105C212.254 9.5616 211.359 11.1627 211.359 11.1627V19.1504H210.402V8.6672H211.193Z" fill="white"/>
<path d="M217.204 13.4289H223.132C223.132 13.4289 223.174 13.1169 223.174 12.7009C223.174 10.4337 222.259 9.37294 220.262 9.37294C218.535 9.37294 217.204 10.3921 217.204 13.3873V13.4289ZM216.227 13.6375C216.227 10.1425 217.828 8.49934 220.262 8.49934C222.613 8.49934 224.152 9.72654 224.152 12.8055C224.152 13.4497 224.047 14.2407 224.047 14.2407H217.204V14.2823C217.204 17.2151 218.39 18.4423 220.595 18.4423C222.259 18.4423 223.049 17.7975 223.049 17.7975H223.798V18.5671C223.798 18.5671 222.716 19.3164 220.553 19.3164C217.932 19.3164 216.227 17.7975 216.227 14.2199V13.6375Z" fill="white"/>
<path d="M50.332 35.8872H51.5023C51.5023 35.8872 51.8429 36.4499 53.2944 36.4499C54.7162 36.4499 55.2346 35.828 55.2346 34.9837C55.2346 34.1544 54.7605 33.7245 53.7978 33.3987L52.8645 33.0728C50.9839 32.436 50.4506 31.5331 50.4506 30.244C50.4506 28.4819 51.7095 27.5043 53.7829 27.5043C55.4714 27.5043 56.5232 28.1112 56.5232 28.1112V29.4147H55.3237C55.3237 29.4147 54.9978 28.8371 53.7237 28.8371C52.5093 28.8371 51.9762 29.3853 51.9762 30.1997C51.9762 30.9555 52.376 31.3256 53.3978 31.6659L54.3312 31.9917C56.1824 32.6435 56.7157 33.4733 56.745 34.8653C56.7749 36.7165 55.5754 37.7832 53.2944 37.7832C51.4578 37.7832 50.332 37.1757 50.332 37.1757V35.8872Z" fill="white"/>
<path d="M61.4119 36.4651C62.7309 36.4651 63.1453 35.591 63.1453 34.0064V33.7696C63.1453 32.1552 62.8637 31.296 61.5159 31.296C60.3901 31.296 59.7383 32.007 59.7383 32.007V35.9168C59.7383 35.9168 60.3165 36.4651 61.4119 36.4651ZM59.7533 37.0875H59.709C59.709 37.0875 59.7383 37.991 59.7383 38.5686V40.2422H58.2578V30.0817H59.5015L59.6941 30.8966H59.7383C59.7383 30.8966 60.4797 30.0075 61.9901 30.0075C63.9005 30.0075 64.6562 31.311 64.6562 33.6064V34.1696C64.6562 36.3467 63.7527 37.7536 61.8125 37.7536C60.5533 37.7536 59.8573 37.191 59.7533 37.0875Z" fill="white"/>
<path d="M69.0698 36.5103C70.3135 36.5103 70.8612 35.785 70.8612 34.0074V33.7562C70.8612 31.9636 70.3135 31.2527 69.0698 31.2527C67.8255 31.2527 67.2922 31.9636 67.2922 33.7562V34.0074C67.2922 35.785 67.8255 36.5103 69.0698 36.5103ZM65.7812 33.6815C65.7812 31.3412 66.8922 29.9642 69.0698 29.9642C71.2463 29.9642 72.3722 31.3412 72.3722 33.6815V34.0964C72.3722 36.4218 71.2463 37.7988 69.0698 37.7988C66.8922 37.7988 65.7812 36.4218 65.7812 34.0964V33.6815Z" fill="white"/>
<path d="M72.8477 30.0818H74.1218V28.2008H75.6029V30.0818H76.8765V31.3704H75.6029V35.4877C75.6029 36.1245 75.9138 36.421 76.4023 36.421H76.6839V37.6797H75.4103C75.4103 37.6797 74.1218 37.3687 74.1218 35.5767V31.3704H72.8477V30.0818Z" fill="white"/>
<path d="M78.1827 30.0818H79.6638V37.6797H78.1827V30.0818ZM78.923 26.7938C79.5305 26.7938 79.8414 27.1346 79.8414 27.6525V27.7714C79.8414 28.2893 79.5305 28.6152 78.923 28.6152C78.3305 28.6152 78.0195 28.2893 78.0195 27.7714V27.6525C78.0195 27.1346 78.3305 26.7938 78.923 26.7938Z" fill="white"/>
<path d="M82.0041 30.0818V29.1192C82.0041 27.1048 83.3369 26.7192 83.3369 26.7192H84.4926V27.9783H84.4334C83.8702 27.9783 83.4851 28.245 83.4851 29.1192V30.0818H84.7593V31.3704H83.4851V37.6797H82.0041V31.3704H80.7305V30.0818H82.0041Z" fill="white"/>
<path d="M86.8006 38.983C87.3782 38.983 87.6742 38.791 87.8817 38.1094L88.1041 37.3392H87.4075L85.2305 30.9702V30.0817H86.519L87.8961 34.2432C88.1483 34.999 88.3851 36.0208 88.3851 36.0208H88.6374C88.6374 36.0208 88.8737 34.999 89.1259 34.2432L90.503 30.0817H91.7323V30.9851L89.5553 37.3392L89.2294 38.3904C88.7409 40.0496 87.7926 40.2422 87.7926 40.2422H86.4155V38.983H86.8006Z" fill="white"/>
<path d="M95.5703 31.429C95.5703 28.7629 96.814 27.4744 99.1836 27.4744C101.539 27.4744 102.235 28.8962 102.235 28.8962V30.0664H100.946C100.946 30.0664 100.873 28.852 99.1986 28.852C97.7031 28.852 97.1106 29.6669 97.1106 31.34V33.9469C97.1106 35.6205 97.7031 36.4354 99.1986 36.4354C100.873 36.4354 100.946 35.2205 100.946 35.2205H102.235V36.3906C102.235 36.3906 101.539 37.8125 99.1836 37.8125C96.814 37.8125 95.5703 36.524 95.5703 33.8584V31.429Z" fill="white"/>
<path d="M107.76 35.7837V34.3917H105.997C105.064 34.3917 104.694 34.8355 104.694 35.4429C104.694 36.2131 105.02 36.5533 105.997 36.5533C107.212 36.5533 107.76 35.7837 107.76 35.7837ZM103.805 30.5704C103.805 30.5848 104.723 29.9923 106.412 29.9923C108.366 29.9923 109.226 30.8365 109.226 32.4211V37.6792H107.996L107.804 36.8792H107.76C107.76 36.8792 106.989 37.7832 105.538 37.7832C103.879 37.7832 103.242 36.8792 103.242 35.5021C103.242 34.0803 104.042 33.2803 105.923 33.2803H107.76V32.4659C107.76 31.6659 107.33 31.2957 106.293 31.2957C105.242 31.2957 104.99 31.7693 104.99 31.7693H103.805V30.5704Z" fill="white"/>
<path d="M111.184 30.0818H112.413L112.605 30.9261H112.65C112.65 30.9261 113.45 29.9634 115.005 29.9634C115.893 29.9634 116.575 30.3485 116.871 31.0295H116.915C116.915 31.0295 117.834 29.9634 119.463 29.9634C120.811 29.9634 121.567 30.7335 121.567 32.2445V37.6797H120.085V32.4216C120.085 31.652 119.759 31.237 118.856 31.237C117.834 31.237 117.123 31.9922 117.123 31.9922V37.6797H115.642V32.4216C115.642 31.652 115.316 31.237 114.397 31.237C113.391 31.237 112.664 31.9922 112.664 31.9922V37.6797H111.184V30.0818Z" fill="white"/>
<path d="M126.694 36.4651C128.012 36.4651 128.427 35.591 128.427 34.0064V33.7696C128.427 32.1552 128.145 31.296 126.797 31.296C125.672 31.296 125.02 32.007 125.02 32.007V35.9168C125.02 35.9168 125.598 36.4651 126.694 36.4651ZM125.035 37.0875H124.99C124.99 37.0875 125.02 37.991 125.02 38.5686V40.2422H123.539V30.0817H124.783L124.975 30.8966H125.02C125.02 30.8966 125.761 30.0075 127.272 30.0075C129.182 30.0075 129.937 31.311 129.937 33.6064V34.1696C129.937 36.3467 129.034 37.7536 127.094 37.7536C125.835 37.7536 125.139 37.191 125.035 37.0875Z" fill="white"/>
<path d="M134.367 27.6082H135.996L139.181 33.0439C139.447 33.5031 140.01 34.6727 140.01 34.6727H140.04C140.04 34.6727 139.966 33.4296 139.966 32.3624V27.6082H141.462V37.6797H139.966V37.0136L136.767 31.5629C136.337 30.7927 135.848 29.8888 135.848 29.8888H135.804C135.804 29.8888 135.863 30.7629 135.863 31.7554V37.6797H134.367V27.6082Z" fill="white"/>
<path d="M146.409 36.5103C147.653 36.5103 148.201 35.785 148.201 34.0074V33.7562C148.201 31.9636 147.653 31.2527 146.409 31.2527C145.165 31.2527 144.631 31.9636 144.631 33.7562V34.0074C144.631 35.785 145.165 36.5103 146.409 36.5103ZM143.121 33.6815C143.121 31.3412 144.232 29.9642 146.409 29.9642C148.587 29.9642 149.712 31.3412 149.712 33.6815V34.0964C149.712 36.4218 148.587 37.7988 146.409 37.7988C144.232 37.7988 143.121 36.4218 143.121 34.0964V33.6815Z" fill="white"/>
<path d="M152.688 30.0826V35.3407C152.688 36.1108 153.088 36.5252 154.021 36.5252C155.088 36.5252 155.769 35.77 155.769 35.77V30.0826H157.25V37.6804H156.021L155.813 36.8511H155.784C155.784 36.8511 155.013 37.7988 153.414 37.7988C152.036 37.7988 151.207 37.0586 151.207 35.5327V30.0826H152.688Z" fill="white"/>
</svg>
